<svg width="34" height="24" viewBox="0 0 34 24" fill="none" xmlns="http://www.w3.org/2000/svg">
<rect x="0.5" y="0.5" width="33" height="23" rx="3.5" fill="white"/>
<rect x="0.5" y="0.5" width="33" height="23" rx="3.5" stroke="#F2F4F7"/>
<path fill-rule="evenodd" clip-rule="evenodd" d="M14.613 18.4483L14.8338 16.9992L14.3421 16.9873H11.9941L13.6259 6.29368C13.631 6.2613 13.6474 6.23124 13.6714 6.20986C13.6955 6.18847 13.7262 6.17674 13.7584 6.17674H17.7174C19.0318 6.17674 19.9388 6.45938 20.4123 7.01732C20.6343 7.27906 20.7757 7.55265 20.8442 7.85362C20.9159 8.16949 20.9171 8.54683 20.8471 9.00714L20.8421 9.04062V9.3356L21.0641 9.46561C21.251 9.56813 21.3996 9.68544 21.5136 9.81973C21.7034 10.0436 21.8263 10.3281 21.8782 10.6652C21.9318 11.012 21.9141 11.4248 21.8263 11.892C21.725 12.4294 21.5612 12.8976 21.34 13.2805C21.1367 13.6334 20.8775 13.9262 20.5698 14.153C20.276 14.3686 19.927 14.5322 19.5324 14.6369C19.1499 14.7398 18.7139 14.7917 18.2357 14.7917H17.9276C17.7073 14.7917 17.4933 14.8737 17.3254 15.0207C17.1569 15.1708 17.0455 15.3758 17.0113 15.6L16.9881 15.7305L16.598 18.2848L16.5804 18.3785C16.5757 18.4082 16.5677 18.423 16.5558 18.433C16.5453 18.4422 16.5302 18.4483 16.5154 18.4483H14.613Z" fill="#28356A"/>
<path fill-rule="evenodd" clip-rule="evenodd" d="M21.2741 9.07468C21.2624 9.15276 21.2488 9.23255 21.2337 9.31454C20.7116 12.0852 18.9254 13.0423 16.6441 13.0423H15.4825C15.2035 13.0423 14.9684 13.2517 14.925 13.5361L14.1619 18.5394C14.1336 18.7262 14.2729 18.8945 14.4552 18.8945H16.5153C16.7592 18.8945 16.9665 18.7113 17.0049 18.4626L17.0251 18.3545L17.413 15.8103L17.438 15.6707C17.4759 15.4212 17.6836 15.2379 17.9275 15.2379H18.2356C20.2316 15.2379 21.7942 14.4004 22.2509 11.9766C22.4416 10.9641 22.3429 10.1186 21.838 9.52399C21.6853 9.34473 21.4958 9.19589 21.2741 9.07468Z" fill="#298FC2"/>
<path fill-rule="evenodd" clip-rule="evenodd" d="M20.7288 8.84963C20.649 8.82556 20.5667 8.80381 20.4823 8.78413C20.3974 8.76495 20.3105 8.74797 20.2211 8.73306C19.9079 8.68076 19.5647 8.65595 19.1971 8.65595H16.0941C16.0176 8.65595 15.945 8.67379 15.8801 8.70605C15.7369 8.77717 15.6306 8.9172 15.6049 9.08864L14.9447 13.4102L14.9258 13.5362C14.9692 13.2517 15.2043 13.0424 15.4833 13.0424H16.6449C18.9261 13.0424 20.7124 12.0847 21.2345 9.31458C21.2501 9.23259 21.2632 9.1528 21.2749 9.07471C21.1428 9.00225 20.9998 8.9403 20.8457 8.88751C20.8077 8.87444 20.7684 8.86185 20.7288 8.84963Z" fill="#22284F"/>
<path fill-rule="evenodd" clip-rule="evenodd" d="M15.6047 9.08865C15.6304 8.91721 15.7367 8.77718 15.8799 8.70655C15.9453 8.67417 16.0174 8.65633 16.0939 8.65633H19.1969C19.5645 8.65633 19.9077 8.68126 20.2208 8.73356C20.3103 8.74834 20.3972 8.76545 20.4821 8.78463C20.5665 8.80418 20.6488 8.82606 20.7286 8.85001C20.7682 8.86223 20.8075 8.87493 20.8459 8.88752C20.9999 8.94031 21.1431 9.00275 21.2752 9.07472C21.4305 8.05085 21.2739 7.35373 20.7383 6.72248C20.1478 6.02743 19.0821 5.73001 17.7184 5.73001H13.7593C13.4808 5.73001 13.2431 5.93933 13.2001 6.22429L11.5511 17.0279C11.5186 17.2416 11.6781 17.4344 11.8866 17.4344H14.3308L15.6047 9.08865Z" fill="#28356A"/>
</svg>
